PathFileType	4	(X/Y/Z)	E:\3-PhD\Data\MocapData\ElaboratedData\015\pre\dynamicElaborations\RunA1\RunA1.trc
DataRate	CameraRate	NumFrames	NumMarkers	Units	OrigDataRate	DataStartFrame
200	200	5	61	mm	200	363
Frame#	Time	FHD			LBHD			RBHD			C7			T10			CLAV			LSHO			LUUPA			LMUPA			LDUPA			LLEP			LMEP			LRAD			LUL			LRFIN			RSHO			RUPA1			RMUPA			RDUPA			RLEP			RMEP			RRAD			RUL			RUFIN			LASI			RASI			USACR			LSACR			RSACR			LTHI1			LTHI2			LTHI3			LTHI4			LLFC			LMFC			LTIB1			LTIB2			LTIB3			LTIB4			LLMAL			LMMAL			LHEE			LMT1			LMT5			LMT2			RTHI			RTHI2			RTHI3			RTHI4			RLFC			RMFC			RTIB1			RTIB2			RTIB3			RTIB4			RLMAL			RMMAL			RHEE			RMT1			RMT2			RMT5		
		X1	Y1	Z1	X2	Y2	Z2	X3	Y3	Z3	X4	Y4	Z4	X5	Y5	Z5	X6	Y6	Z6	X7	Y7	Z7	X8	Y8	Z8	X9	Y9	Z9	X10	Y10	Z10	X11	Y11	Z11	X12	Y12	Z12	X13	Y13	Z13	X14	Y14	Z14	X15	Y15	Z15	X16	Y16	Z16	X17	Y17	Z17	X18	Y18	Z18	X19	Y19	Z19	X20	Y20	Z20	X21	Y21	Z21	X22	Y22	Z22	X23	Y23	Z23	X24	Y24	Z24	X25	Y25	Z25	X26	Y26	Z26	X27	Y27	Z27	X28	Y28	Z28	X29	Y29	Z29	X30	Y30	Z30	X31	Y31	Z31	X32	Y32	Z32	X33	Y33	Z33	X34	Y34	Z34	X35	Y35	Z35	X36	Y36	Z36	X37	Y37	Z37	X38	Y38	Z38	X39	Y39	Z39	X40	Y40	Z40	X41	Y41	Z41	X42	Y42	Z42	X43	Y43	Z43	X44	Y44	Z44	X45	Y45	Z45	X46	Y46	Z46	X47	Y47	Z47	X48	Y48	Z48	X49	Y49	Z49	X50	Y50	Z50	X51	Y51	Z51	X52	Y52	Z52	X53	Y53	Z53	X54	Y54	Z54	X55	Y55	Z55	X56	Y56	Z56	X57	Y57	Z57	X58	Y58	Z58	X59	Y59	Z59	X60	Y60	Z60	X61	Y61	Z61	

399	1.990000	-2531.237125	1473.097209	175.646193	-2664.215090	1526.888842	162.696849	-2677.114185	1526.697243	289.522065	-2808.320372	1431.959008	214.808487	-2987.980444	1143.835955	215.444899	-2705.469196	1296.287210	216.481586	-2721.021688	1396.403292	42.650657	-2714.079889	1213.847831	-29.112323	-2688.463727	1181.469517	-2.773479	-2709.455459	1148.827721	-48.934795	-2725.955993	1065.344985	-64.353083	-2772.776087	1044.408060	22.294438	-2523.103634	1034.440737	93.600111	-2553.943663	1096.408226	120.393068	-2472.203386	1116.741607	147.469538	-2754.198642	1395.615811	396.635415	-2883.468768	1366.614580	513.132858	-2880.009724	1324.979928	539.407573	-2932.713972	1348.271878	559.888570	-3002.917835	1288.372547	625.010667	-3052.893989	1275.025541	560.204931	-2924.708566	1034.688825	596.575477	-2969.141180	1016.663466	655.382865	-2875.967190	978.920758	633.509986	-2926.468621	944.727685	63.569615	-2883.381165	939.684962	315.138853	-3050.447329	1044.695837	225.824100	-3068.871975	1014.759567	202.538324	-3060.841903	1017.583748	257.705780	-3078.897494	669.071490	29.702710	-3058.351991	587.991279	27.908470	-3012.254468	580.961231	19.740148	-3085.005941	539.564617	52.475517	-3100.178989	446.965972	64.040889	-3078.803455	446.697523	193.907893	-3128.707345	281.327540	105.237547	-3202.517721	271.037224	57.621250	-3169.967011	249.944071	79.602027	-3215.882949	185.488580	115.936235	-3337.760237	113.975144	99.957953	-3320.815257	127.887368	190.201077	-3422.252338	87.158695	154.525685	-3212.643822	55.159875	165.197774	-3252.814493	22.531563	63.995036	-3213.927808	51.422224	117.401181	-2838.152216	831.363501	399.339209	-2773.938024	828.491881	383.762035	-2761.600383	850.602221	359.328094	-2726.991461	757.640176	387.582259	-2650.948962	615.210239	342.618752	-2643.761389	620.485052	211.954163	-2773.936082	469.137504	300.120570	-2871.030377	487.997217	349.857842	-2851.149854	450.150005	330.314714	-2890.065310	418.385572	300.336095	-2970.760946	420.536587	332.653756	-2967.695078	424.798286	249.087933	-3069.157485	449.601369	289.989528	-2925.800957	279.331459	263.962131	-2925.319869	283.253624	306.802704	-2971.044193	294.847622	362.447629	
400	1.995000	-2505.902841	1473.958556	177.917433	-2638.910761	1527.789421	165.265794	-2651.387838	1527.516653	292.149748	-2782.364720	1432.423894	216.262851	-2960.284960	1142.793265	213.142918	-2679.001410	1297.615682	219.268940	-2693.061440	1399.720909	46.656058	-2683.076933	1218.621527	-27.629033	-2656.451949	1186.632496	-1.753493	-2677.075116	1153.966960	-48.122195	-2691.795835	1070.052727	-63.654210	-2738.069485	1048.334887	23.054384	-2488.883116	1047.909417	96.618721	-2522.267090	1109.025490	122.428484	-2441.440242	1132.736059	149.585471	-2728.711511	1397.903487	397.807140	-2858.513323	1373.342829	512.651454	-2856.389462	1332.123571	539.750299	-2908.714559	1357.063535	559.155587	-2981.142215	1300.188229	624.384125	-3030.089798	1286.642002	558.696040	-2906.860186	1043.708920	599.762905	-2952.784569	1026.899652	657.534004	-2859.854531	987.053122	637.688762	-2896.093634	942.560573	63.414704	-2856.429627	941.044550	315.329012	-3022.403181	1043.947795	223.355309	-3040.384136	1013.747381	200.137441	-3033.333996	1017.217580	255.443047	-3057.676764	671.201628	30.239644	-3040.478629	589.395569	29.531663	-2994.650583	580.757811	22.246786	-3069.690475	542.514735	53.931400	-3089.835299	450.714058	66.020035	-3068.372337	449.093464	196.137530	-3122.563580	285.059340	105.811229	-3196.982579	276.896795	58.648426	-3164.658303	254.738567	80.183348	-3210.907410	190.232318	115.766175	-3333.042470	120.339007	98.943818	-3316.052469	133.201562	189.131321	-3418.257203	96.633255	153.275377	-3212.006313	54.345593	165.277040	-3252.787490	22.693790	64.274622	-3213.368830	50.972300	117.534748	-2811.286108	836.584434	398.539248	-2747.165098	836.193525	382.919007	-2735.576264	859.256567	358.956614	-2697.793686	766.779448	385.934819	-2616.243168	626.890297	340.452586	-2609.267843	633.744237	210.503628	-2728.720560	471.942178	298.713253	-2826.703270	483.959513	348.885166	-2804.268467	447.481496	329.061922	-2841.015673	413.232353	299.323957	-2922.468335	409.760469	331.953552	-2919.402150	413.774037	248.420971	-3022.838648	431.179114	289.129130	-2866.957302	272.134627	264.641080	-2866.859926	276.389099	307.377634	-2913.428865	284.753759	362.791768	
401	2.000000	-2480.360876	1474.884595	180.291758	-2613.341231	1528.914507	167.925230	-2625.389854	1528.594021	294.859783	-2756.347918	1433.208854	217.765037	-2932.339696	1142.051317	210.719742	-2652.430001	1299.235665	222.115691	-2665.175725	1403.188528	50.723781	-2652.544382	1223.657773	-26.171850	-2625.016184	1191.984946	-0.806914	-2645.327735	1159.392315	-47.398656	-2658.619663	1075.118095	-63.307991	-2704.531393	1052.696108	23.347322	-2456.084420	1060.974328	99.233516	-2491.802465	1121.246869	124.128953	-2411.972725	1148.060523	151.330588	-2703.029323	1400.333018	399.059928	-2833.023403	1379.595468	512.377327	-2832.315949	1338.703819	540.011034	-2884.097330	1365.215497	558.601652	-2958.658494	1311.278884	623.502462	-3006.623398	1297.856465	556.982138	-2888.377650	1052.108341	602.151947	-2935.671879	1036.388235	658.909959	-2843.018226	994.547805	640.888582	-2865.079840	941.097424	63.684581	-2829.258651	943.220529	315.495061	-2994.121778	1043.489093	220.729845	-3011.660322	1013.039076	197.569161	-3005.618742	1017.140720	252.988468	-3035.269259	673.832000	30.678414	-3021.541343	591.381488	31.187394	-2976.007270	581.148849	25.010441	-3053.362983	546.261755	55.451776	-3078.771626	455.682539	68.076686	-3057.657064	452.807055	198.467661	-3115.261807	289.993548	106.466081	-3190.489706	284.082913	60.089165	-3158.339938	260.892959	80.806481	-3204.619922	196.083799	115.587756	-3327.175944	127.736724	98.133895	-3309.944426	139.133730	188.062691	-3412.781175	107.475479	152.042515	-3211.044757	53.500010	165.495585	-3252.493976	23.352229	64.723694	-3212.494462	50.581613	117.783678	-2784.614476	841.643118	397.767354	-2720.739728	843.352065	382.089953	-2709.802390	867.271571	358.633580	-2669.255417	775.261635	384.426510	-2582.499613	637.589038	338.389081	-2575.846723	645.812815	209.201390	-2684.153841	474.331571	297.153772	-2782.588764	479.410122	347.730271	-2757.690575	444.471930	327.646002	-2792.117062	407.912036	298.088301	-2874.022235	398.785252	330.932489	-2870.804064	402.527431	247.431588	-2975.755837	412.366805	287.826000	-2808.122807	265.496504	265.156201	-2808.522435	270.086049	307.767746	-2855.749295	275.203492	362.911185	
402	2.005000	-2454.597121	1475.893082	182.759108	-2587.501732	1530.253485	170.643913	-2599.146439	1529.911956	297.612811	-2730.265147	1434.290053	219.293240	-2904.176243	1141.608031	208.229512	-2625.751426	1301.119369	224.980146	-2637.382843	1406.737971	54.763134	-2622.449301	1228.849442	-24.734488	-2594.142711	1197.412253	0.097227	-2614.171720	1164.982473	-46.745884	-2626.394668	1080.412754	-63.317672	-2672.163265	1057.329960	23.192871	-2424.651303	1073.391143	101.482217	-2462.485939	1132.852756	125.544537	-2383.711438	1162.474288	152.778969	-2677.172355	1402.852681	400.396202	-2807.096018	1385.319988	512.351561	-2807.856179	1344.658562	540.238670	-2858.956236	1372.647139	558.273641	-2935.511683	1321.475379	622.434928	-2982.533883	1308.544523	555.157364	-2869.203622	1059.776513	603.781058	-2917.733971	1044.998114	659.565763	-2825.375722	1001.305053	643.136718	-2833.620709	940.298905	64.333201	-2801.912926	946.016018	315.582664	-2965.661099	1043.316063	217.986419	-2982.774835	1012.646938	194.860013	-2977.744067	1017.332074	250.361846	-3011.699919	676.930286	31.012939	-3001.493954	593.926782	32.830944	-2956.281737	582.139682	27.945493	-3035.919587	550.734848	56.982474	-3066.683423	461.759223	70.138987	-3046.408192	458.018635	200.836029	-3106.505983	295.996106	107.205973	-3182.633526	292.397435	61.811423	-3150.663147	268.267133	81.447575	-3196.794659	202.950844	115.359172	-3319.941286	136.156077	97.542397	-3302.316242	145.650671	187.040050	-3405.605132	119.638113	150.923533	-3209.649498	52.749658	165.878778	-3251.811473	24.648799	65.358422	-3211.204736	50.349313	118.174274	-2758.058028	846.468180	397.030285	-2694.543582	849.867699	381.265540	-2684.155055	874.519515	358.303833	-2641.270662	782.952930	383.081649	-2549.598896	647.089259	336.516658	-2543.455772	656.436748	208.151861	-2640.319723	476.201465	295.500783	-2738.762782	474.322193	346.427596	-2711.524038	441.075996	326.113083	-2743.501328	402.418881	296.676561	-2825.505637	387.676688	329.613572	-2822.002280	391.162501	246.139748	-2927.968818	393.344573	286.100849	-2749.518345	259.452046	265.482010	-2750.520144	264.364843	307.957744	-2798.207942	266.244611	362.803338	
403	2.010000	-2428.599202	1477.003064	185.308106	-2561.388004	1531.793015	173.390283	-2572.684110	1531.447711	300.370556	-2704.091803	1435.636978	220.831622	-2875.834905	1141.463689	205.737038	-2598.958817	1303.233612	227.820344	-2609.692211	1410.313681	58.689328	-2592.758315	1234.095884	-23.325201	-2563.817797	1202.803055	0.973978	-2583.572880	1170.627780	-46.161448	-2595.093346	1085.825391	-63.678628	-2640.940688	1062.093395	22.638951	-2394.516135	1084.930404	103.398074	-2434.236878	1143.638451	126.716792	-2356.546091	1175.747246	154.001536	-2651.154500	1405.401973	401.817503	-2780.825262	1390.468798	512.600411	-2783.073054	1349.931934	540.464232	-2833.386441	1379.280599	558.192166	-2911.767153	1330.621452	621.243167	-2957.870834	1318.568715	553.306012	-2849.286660	1066.616957	604.687011	-2898.914320	1052.611972	659.548732	-2806.853742	1007.247907	644.474007	-2801.917686	940.080399	65.291767	-2774.449311	949.215476	315.570528	-2937.083493	1043.434186	215.172392	-2953.800358	1012.584529	192.047929	-2949.758935	1017.780912	247.598958	-2987.036325	680.439844	31.244731	-2980.297278	596.988516	34.410551	-2935.437873	583.714076	30.944183	-3017.246065	555.809775	58.447637	-3053.242982	468.710457	72.124773	-3034.304648	464.727022	203.142041	-3096.048663	302.846453	108.010872	-3173.047961	301.546984	63.636613	-3141.297308	276.589250	82.083168	-3187.259774	210.675998	115.059027	-3311.170475	145.512895	97.170586	-3293.050236	152.719817	186.108008	-3396.566666	133.032340	150.011014	-3207.691463	52.277517	166.451524	-3250.598358	26.747848	66.197929	-3209.381085	50.413926	118.733190	-2731.537518	851.007402	396.319496	-2668.452753	855.675395	380.428729	-2658.507667	880.911582	357.906176	-2613.727057	789.758177	381.906306	-2517.464891	655.215570	334.924011	-2512.072282	665.430619	207.452924	-2597.311260	477.445432	293.841309	-2695.336826	468.663659	345.018210	-2665.899177	437.238526	324.521508	-2695.318764	396.722635	295.145042	-2777.030851	376.469608	328.028279	-2773.134015	379.756450	244.577536	-2879.590695	374.263689	283.988156	-2691.383740	253.984420	265.587867	-2693.074921	259.190545	307.928185	-2741.023634	257.861911	362.457467	
